<mxfile host="app.diagrams.net" modified="2024-01-10T19:51:54.802Z" agent="Mozilla/5.0 (X11; Linux x86_64) AppleWebKit/537.36 (KHTML, like Gecko) Chrome/120.0.0.0 Safari/537.36" etag="j4GpWUPYFwpO8NkjyiO1" version="22.1.18" type="github">
  <diagram name="Page-1" id="4ATtiWjnrxQHAAU8MXNv">
    <mxGraphModel dx="818" dy="501" grid="1" gridSize="10" guides="1" tooltips="1" connect="1" arrows="1" fold="1" page="1" pageScale="1" pageWidth="827" pageHeight="1169" math="0" shadow="0">
      <root>
        <mxCell id="0" />
        <mxCell id="1" parent="0" />
        <mxCell id="-px85Gpe28mOgWc0AvZz-7" value="" style="edgeStyle=orthogonalEdgeStyle;rounded=0;orthogonalLoop=1;jettySize=auto;html=1;" parent="1" source="-px85Gpe28mOgWc0AvZz-1" target="-px85Gpe28mOgWc0AvZz-2" edge="1">
          <mxGeometry relative="1" as="geometry" />
        </mxCell>
        <mxCell id="-px85Gpe28mOgWc0AvZz-1" value="" style="rounded=0;whiteSpace=wrap;html=1;" parent="1" vertex="1">
          <mxGeometry x="240" y="120" width="120" height="280" as="geometry" />
        </mxCell>
        <mxCell id="-px85Gpe28mOgWc0AvZz-2" value="" style="rounded=0;whiteSpace=wrap;html=1;" parent="1" vertex="1">
          <mxGeometry x="400" y="120" width="120" height="280" as="geometry" />
        </mxCell>
        <mxCell id="-px85Gpe28mOgWc0AvZz-3" value="" style="rounded=0;whiteSpace=wrap;html=1;" parent="1" vertex="1">
          <mxGeometry x="560" y="120" width="120" height="280" as="geometry" />
        </mxCell>
        <mxCell id="-px85Gpe28mOgWc0AvZz-5" value="" style="image;sketch=0;aspect=fixed;html=1;points=[];align=center;fontSize=12;image=img/lib/mscae/ResourceGroup.svg;" parent="1" vertex="1">
          <mxGeometry x="265" y="250" width="50" height="40" as="geometry" />
        </mxCell>
        <mxCell id="-px85Gpe28mOgWc0AvZz-6" value="" style="image;aspect=fixed;html=1;points=[];align=center;fontSize=12;image=img/lib/azure2/general/Subscriptions.svg;" parent="1" vertex="1">
          <mxGeometry x="283" y="320" width="34" height="54.86" as="geometry" />
        </mxCell>
        <mxCell id="-px85Gpe28mOgWc0AvZz-8" value="" style="image;aspect=fixed;html=1;points=[];align=center;fontSize=12;image=img/lib/azure2/integration/Event_Grid_Subscriptions.svg;" parent="1" vertex="1">
          <mxGeometry x="480" y="209.09" width="40" height="35.82" as="geometry" />
        </mxCell>
        <mxCell id="-px85Gpe28mOgWc0AvZz-29" value="" style="rounded=0;whiteSpace=wrap;html=1;fillColor=#f5f5f5;fontColor=#333333;strokeColor=#666666;gradientColor=#FAFAFA;" parent="1" vertex="1">
          <mxGeometry x="220" y="585" width="460" height="175" as="geometry" />
        </mxCell>
        <mxCell id="-px85Gpe28mOgWc0AvZz-28" value="" style="group" parent="1" vertex="1" connectable="0">
          <mxGeometry x="235" y="602" width="405" height="126" as="geometry" />
        </mxCell>
        <mxCell id="-px85Gpe28mOgWc0AvZz-11" value="" style="rounded=0;whiteSpace=wrap;html=1;" parent="-px85Gpe28mOgWc0AvZz-28" vertex="1">
          <mxGeometry x="245" y="38" width="80" height="80" as="geometry" />
        </mxCell>
        <mxCell id="-px85Gpe28mOgWc0AvZz-21" style="edgeStyle=orthogonalEdgeStyle;rounded=0;orthogonalLoop=1;jettySize=auto;html=1;exitX=1;exitY=0.5;exitDx=0;exitDy=0;entryX=0;entryY=0.5;entryDx=0;entryDy=0;" parent="-px85Gpe28mOgWc0AvZz-28" source="-px85Gpe28mOgWc0AvZz-12" target="-px85Gpe28mOgWc0AvZz-11" edge="1">
          <mxGeometry relative="1" as="geometry" />
        </mxCell>
        <mxCell id="-px85Gpe28mOgWc0AvZz-12" value="" style="rounded=0;whiteSpace=wrap;html=1;" parent="-px85Gpe28mOgWc0AvZz-28" vertex="1">
          <mxGeometry x="125" y="38" width="80" height="80" as="geometry" />
        </mxCell>
        <mxCell id="-px85Gpe28mOgWc0AvZz-20" style="edgeStyle=orthogonalEdgeStyle;rounded=0;orthogonalLoop=1;jettySize=auto;html=1;exitX=1;exitY=0.5;exitDx=0;exitDy=0;entryX=0;entryY=0.5;entryDx=0;entryDy=0;" parent="-px85Gpe28mOgWc0AvZz-28" source="-px85Gpe28mOgWc0AvZz-13" target="-px85Gpe28mOgWc0AvZz-12" edge="1">
          <mxGeometry relative="1" as="geometry" />
        </mxCell>
        <mxCell id="-px85Gpe28mOgWc0AvZz-13" value="" style="rounded=0;whiteSpace=wrap;html=1;" parent="-px85Gpe28mOgWc0AvZz-28" vertex="1">
          <mxGeometry x="5" y="38" width="80" height="80" as="geometry" />
        </mxCell>
        <mxCell id="-px85Gpe28mOgWc0AvZz-4" value="" style="image;sketch=0;aspect=fixed;html=1;points=[];align=center;fontSize=12;image=img/lib/mscae/Policy.svg;" parent="-px85Gpe28mOgWc0AvZz-28" vertex="1">
          <mxGeometry x="22.5" y="53" width="45" height="50" as="geometry" />
        </mxCell>
        <mxCell id="-px85Gpe28mOgWc0AvZz-9" value="" style="image;aspect=fixed;html=1;points=[];align=center;fontSize=12;image=img/lib/azure2/integration/Event_Grid_Topics.svg;" parent="-px85Gpe28mOgWc0AvZz-28" vertex="1">
          <mxGeometry x="137.08999999999997" y="53" width="55.83" height="50" as="geometry" />
        </mxCell>
        <mxCell id="-px85Gpe28mOgWc0AvZz-10" value="" style="image;aspect=fixed;html=1;points=[];align=center;fontSize=12;image=img/lib/azure2/integration/Logic_Apps.svg;" parent="-px85Gpe28mOgWc0AvZz-28" vertex="1">
          <mxGeometry x="251.5" y="53" width="67" height="52" as="geometry" />
        </mxCell>
        <mxCell id="-px85Gpe28mOgWc0AvZz-14" value="" style="rounded=0;whiteSpace=wrap;html=1;" parent="-px85Gpe28mOgWc0AvZz-28" vertex="1">
          <mxGeometry x="365" width="40" height="40" as="geometry" />
        </mxCell>
        <mxCell id="-px85Gpe28mOgWc0AvZz-23" style="edgeStyle=orthogonalEdgeStyle;rounded=0;orthogonalLoop=1;jettySize=auto;html=1;exitX=1;exitY=0.5;exitDx=0;exitDy=0;entryX=0;entryY=0.5;entryDx=0;entryDy=0;" parent="-px85Gpe28mOgWc0AvZz-28" source="-px85Gpe28mOgWc0AvZz-11" target="-px85Gpe28mOgWc0AvZz-14" edge="1">
          <mxGeometry relative="1" as="geometry">
            <Array as="points">
              <mxPoint x="345" y="78" />
              <mxPoint x="345" y="20" />
            </Array>
          </mxGeometry>
        </mxCell>
        <mxCell id="-px85Gpe28mOgWc0AvZz-16" value="" style="rounded=0;whiteSpace=wrap;html=1;" parent="-px85Gpe28mOgWc0AvZz-28" vertex="1">
          <mxGeometry x="365" y="78" width="40" height="40" as="geometry" />
        </mxCell>
        <mxCell id="-px85Gpe28mOgWc0AvZz-17" value="" style="image;sketch=0;aspect=fixed;html=1;points=[];align=center;fontSize=12;image=img/lib/mscae/Azure_Pipelines.svg;" parent="-px85Gpe28mOgWc0AvZz-28" vertex="1">
          <mxGeometry x="370" y="83" width="30" height="30" as="geometry" />
        </mxCell>
        <mxCell id="-px85Gpe28mOgWc0AvZz-22" value="" style="edgeStyle=orthogonalEdgeStyle;rounded=0;orthogonalLoop=1;jettySize=auto;html=1;" parent="-px85Gpe28mOgWc0AvZz-28" source="-px85Gpe28mOgWc0AvZz-11" target="-px85Gpe28mOgWc0AvZz-17" edge="1">
          <mxGeometry relative="1" as="geometry" />
        </mxCell>
        <mxCell id="-px85Gpe28mOgWc0AvZz-18" value="" style="sketch=0;pointerEvents=1;shadow=0;dashed=0;html=1;strokeColor=none;fillColor=#DF8C42;labelPosition=center;verticalLabelPosition=bottom;verticalAlign=top;align=center;outlineConnect=0;shape=mxgraph.veeam2.microsoft_teams;" parent="-px85Gpe28mOgWc0AvZz-28" vertex="1">
          <mxGeometry x="368" y="3" width="34" height="34" as="geometry" />
        </mxCell>
        <mxCell id="-px85Gpe28mOgWc0AvZz-24" value="&lt;font style=&quot;font-size: 8px;&quot;&gt;Azure Policy Events&lt;/font&gt;" style="text;html=1;strokeColor=none;fillColor=none;align=center;verticalAlign=middle;whiteSpace=wrap;rounded=0;" parent="-px85Gpe28mOgWc0AvZz-28" vertex="1">
          <mxGeometry y="95" width="90" height="30" as="geometry" />
        </mxCell>
        <mxCell id="-px85Gpe28mOgWc0AvZz-25" value="&lt;font style=&quot;font-size: 7px;&quot;&gt;Event Grid System Topics&lt;/font&gt;" style="text;html=1;strokeColor=none;fillColor=none;align=center;verticalAlign=middle;whiteSpace=wrap;rounded=0;" parent="-px85Gpe28mOgWc0AvZz-28" vertex="1">
          <mxGeometry x="124" y="96" width="85" height="30" as="geometry" />
        </mxCell>
        <mxCell id="-px85Gpe28mOgWc0AvZz-26" value="&lt;span style=&quot;font-size: 8px;&quot;&gt;Logic Apps&lt;/span&gt;" style="text;html=1;strokeColor=none;fillColor=none;align=center;verticalAlign=middle;whiteSpace=wrap;rounded=0;" parent="-px85Gpe28mOgWc0AvZz-28" vertex="1">
          <mxGeometry x="240" y="95" width="90" height="30" as="geometry" />
        </mxCell>
      </root>
    </mxGraphModel>
  </diagram>
</mxfile>
